<?xml version="1.0" encoding="utf-8"?>
<!-- Generator: Adobe Illustrator 27.5.0, SVG Export Plug-In . SVG Version: 6.00 Build 0)  -->
<svg version="1.1" id="Capa_1" xmlns="http://www.w3.org/2000/svg" xmlns:xlink="http://www.w3.org/1999/xlink" x="0px" y="0px"
	 viewBox="0 0 2029 2219" style="enable-background:new 0 0 2029 2219;" xml:space="preserve">
<g>
	<path style="fill:#1573A7;" d="M1606.314,319.854h-38.888v1.304c18.635,0.001,35.5,7.552,47.714,19.764
		c12.212,12.213,19.763,29.078,19.764,47.714v1634.506c-0.001,18.635-7.553,35.501-19.764,47.714
		c-12.214,12.212-29.079,19.763-47.714,19.764v1.304h38.888c37.987,0,68.781-30.795,68.781-68.782V388.637
		C1675.095,350.649,1644.301,319.854,1606.314,319.854z"/>
	<path style="fill:#4A9ECF;" d="M1567.426,319.854h-292.381l0.046,0.694c0.078,1.228,0.184,2.423,0.184,3.623v73.25h231.764h47.876
		v28.22h26.747v1616.939H433.456v-28.22h-26.749V397.421h306.388v-73.25c0-1.199,0.106-2.394,0.184-3.623l0.043-0.694H460.626
		h-38.888c-37.988,0-68.783,30.795-68.783,68.783v1634.506c0,37.987,30.795,68.781,68.783,68.782h38.888h1106.8
		c37.987,0,68.781-30.795,68.781-68.782V388.637C1636.208,350.649,1605.413,319.854,1567.426,319.854z"/>
	<polygon style="fill:#AEBDC7;" points="1554.915,424.337 1554.915,2014.358 1507.039,2014.359 886.05,2014.359 432.153,2014.359 
		432.153,2043.884 1582.966,2043.884 1582.966,424.337 	"/>
	<path style="fill:#F6F6F6;" d="M1275.275,396.116v0.652v111.659c-0.001,1.854-0.101,3.686-0.279,5.498
		c-0.061,0.631-0.184,1.275-0.275,1.963c-0.153,1.138-0.297,2.263-0.511,3.348c-0.157,0.803-0.375,1.604-0.576,2.436
		c-0.222,0.909-0.429,1.806-0.685,2.668c-0.265,0.893-0.582,1.774-0.899,2.673c-0.264,0.746-0.517,1.482-0.803,2.191
		c-0.382,0.958-0.809,1.898-1.25,2.842c-0.279,0.596-0.553,1.184-0.844,1.753c-0.516,1.013-1.068,2.002-1.645,2.982l-0.807,1.33
		c-0.661,1.052-1.354,2.086-2.085,3.096l-0.654,0.874c-0.814,1.08-1.658,2.129-2.545,3.145l-0.176,0.2
		c-10.267,11.644-25.248,19.024-41.99,19.025h-294.53H800.614l-0.119,0.502c-31.715,133.331-44.172,269.794-44.172,408.02
		c0,163.639,17.454,329.749,41.093,496.07l0.079,0.56h643.79v30.006H801.83l0.111,0.747c1.379,9.404,2.773,18.808,4.183,28.213
		l0.081,0.555h350.565v30.007H810.754l0.116,0.751c5.407,35.259,10.994,70.509,16.663,105.728l0.087,0.548h146.073v30.006H832.47
		l0.124,0.757c1.525,9.407,3.051,18.81,4.581,28.211l0.088,0.547h604.022v30.007H842.145l0.126,0.757
		c1.531,9.407,3.061,18.811,4.589,28.211l0.088,0.547h594.336v30.006l-589.472,0l0.125,0.756c1.52,9.408,3.033,18.811,4.542,28.21
		l0.087,0.549h300.204v30.007H861.352l0.121,0.754c4.663,29.409,9.234,58.768,13.641,88.06c2.881,17.285,6.19,34.555,10.302,51.62
		l0.118,0.499h622.157V396.116H1275.275z"/>
	<path style="fill:#E9E9E9;" d="M886.683,2014.859c-4.103-17.025-7.406-34.266-10.28-51.519
		c-4.407-29.292-8.981-58.652-13.643-88.059l-0.089-0.55h-65.52v-30.007l60.737,0l-0.121-0.756
		c-1.508-9.4-3.022-18.803-4.542-28.211l-0.089-0.548h-55.985v-30.007h51.12l-0.122-0.757c-1.527-9.4-3.058-18.803-4.589-28.211
		l-0.09-0.547h-46.318v-30.006l41.436-0.001l-0.124-0.757c-1.53-9.401-3.056-18.804-4.581-28.21l-0.089-0.548h-36.641v-30.006
		h31.792l-0.121-0.756c-5.67-35.217-11.256-70.463-16.661-105.718l-0.085-0.553h-14.924v-30.007h10.375l-0.112-0.749
		c-1.411-9.403-2.805-18.806-4.183-28.209l-0.083-0.557h-5.997v-30.006h0.911h0.749l-0.104-0.744
		c-23.63-166.289-41.08-332.34-41.08-495.887c0-138.148,12.449-274.508,44.139-407.719l0.19-0.803H769.12
		c-15.473,0-29.475-6.27-39.615-16.409c-10.138-10.14-16.408-24.142-16.41-39.614V396.116H405.404v1619.547h27.401h454.072
		L886.683,2014.859z"/>
	<path style="fill:#503949;" d="M738.402,761.863c-0.003-8.126-2.295-15.769-6.179-22.313l-0.558-0.937l-25.873,42.896v109.452
		c-0.012,3.164-1.229,5.858-3.297,7.953c-2.09,2.062-4.784,3.28-7.946,3.29H565.503c-3.162-0.01-5.857-1.228-7.953-3.295
		c-2.062-2.09-3.28-4.784-3.291-7.948V761.917c0.012-3.162,1.229-5.857,3.298-7.952c2.089-2.062,4.784-3.279,7.947-3.29h123.843
		l18.433-30.559l-0.809-0.239c-3.94-1.165-8.099-1.817-12.42-1.817H565.503c-12.081,0.001-23.134,4.939-31.013,12.846
		c-7.905,7.879-12.846,18.929-12.846,30.978v0.035l0.003,0.015v129.018l-0.003,0.043c0,12.047,4.938,23.099,12.848,30.98
		c7.88,7.905,18.932,12.844,31.011,12.844H694.55c12.073,0,23.125-4.94,31.01-12.845c7.887-7.863,12.818-18.886,12.839-30.906
		l0.005-0.019V761.917l-0.002-0.054H738.402z"/>
	<polygon style="fill:#503949;" points="974.997,718.06 974.346,718.06 795.848,718.06 795.848,750.675 974.997,750.675 	"/>
	<polygon style="fill:#503949;" points="795.848,777.581 795.848,810.196 796.5,810.196 1442.589,810.196 1442.589,777.581 	"/>
	<polygon style="fill:#503949;" points="795.848,869.718 796.5,869.718 1442.589,869.718 1442.589,837.103 795.848,837.103 	"/>
	<polygon style="fill:#503949;" points="1158.074,896.625 1157.423,896.625 795.848,896.625 795.848,929.24 1158.074,929.24 	"/>
	<path style="fill:#503949;" d="M738.402,1077.461c-0.003-8.126-2.295-15.769-6.179-22.313l-0.559-0.939l-25.872,42.899v109.452
		c-0.012,3.163-1.229,5.858-3.297,7.953c-2.09,2.062-4.784,3.279-7.946,3.29H565.503c-3.162-0.011-5.857-1.229-7.953-3.296
		c-2.062-2.09-3.28-4.784-3.291-7.948v-129.045c0.012-3.162,1.229-5.857,3.298-7.952c2.089-2.062,4.784-3.279,7.947-3.29h123.843
		l18.433-30.559l-0.809-0.239c-3.94-1.165-8.099-1.817-12.42-1.817H565.503c-12.081,0.001-23.134,4.939-31.013,12.846
		c-7.905,7.879-12.846,18.929-12.846,30.978v0.035l0.003,0.015v129.018l-0.003,0.043c0,12.048,4.938,23.099,12.848,30.98
		c7.88,7.905,18.932,12.844,31.011,12.845H694.55c12.073,0,23.125-4.94,31.01-12.846c7.887-7.863,12.818-18.886,12.839-30.906
		l0.005-0.019v-129.133l-0.002-0.054H738.402z"/>
	<polygon style="fill:#503949;" points="974.997,1033.657 974.346,1033.657 795.848,1033.657 795.848,1066.273 974.997,1066.273 	
		"/>
	<polygon style="fill:#503949;" points="795.848,1125.794 796.5,1125.794 1442.589,1125.794 1442.589,1093.179 795.848,1093.179 	
		"/>
	<polygon style="fill:#503949;" points="795.848,1185.316 796.5,1185.316 1442.589,1185.316 1442.589,1152.701 795.848,1152.701 	
		"/>
	<polygon style="fill:#503949;" points="1158.074,1212.223 1157.423,1212.223 795.848,1212.223 795.848,1244.838 1158.074,1244.838 
			"/>
	<path style="fill:#503949;" d="M738.402,1393.059c-0.003-8.126-2.295-15.769-6.179-22.314l-0.559-0.939l-25.872,42.899v109.452
		c-0.012,3.163-1.229,5.858-3.297,7.953c-2.09,2.062-4.784,3.279-7.946,3.29H565.503c-3.162-0.011-5.857-1.228-7.953-3.295
		c-2.062-2.09-3.28-4.784-3.291-7.948v-129.044c0.012-3.162,1.229-5.857,3.298-7.952c2.089-2.062,4.784-3.279,7.947-3.29h123.843
		l18.433-30.559l-0.809-0.239c-3.94-1.165-8.099-1.817-12.42-1.817H565.503c-12.081,0.001-23.134,4.939-31.013,12.846
		c-7.905,7.879-12.846,18.929-12.846,30.978v0.035l0.003,0.015v129.018l-0.003,0.043c0,12.048,4.938,23.099,12.848,30.98
		c7.88,7.905,18.932,12.844,31.011,12.845H694.55c12.073,0,23.125-4.94,31.01-12.846c7.887-7.863,12.818-18.886,12.839-30.906
		l0.005-0.019v-129.132l-0.002-0.054H738.402z"/>
	<polygon style="fill:#503949;" points="974.997,1349.255 974.346,1349.255 795.848,1349.255 795.848,1381.871 974.997,1381.871 	
		"/>
	<polygon style="fill:#503949;" points="795.848,1441.392 796.5,1441.392 1442.589,1441.392 1442.589,1408.777 795.848,1408.777 	
		"/>
	<polygon style="fill:#503949;" points="796.5,1468.299 795.848,1468.299 795.848,1500.914 796.5,1500.914 802.586,1500.914 
		1442.589,1500.914 1442.589,1468.299 798.062,1468.299 	"/>
	<polygon style="fill:#503949;" points="811.516,1560.436 1158.074,1560.436 1158.074,1527.821 806.769,1527.821 795.848,1527.821 
		795.848,1560.436 796.5,1560.436 	"/>
	<path style="fill:#503949;" d="M738.402,1708.657c-0.003-8.126-2.295-15.769-6.179-22.314l-0.558-0.936l-25.873,42.896v109.452
		c-0.012,3.163-1.229,5.858-3.297,7.953c-2.09,2.062-4.784,3.28-7.946,3.29H565.503c-3.162-0.01-5.857-1.229-7.953-3.295
		c-2.062-2.091-3.28-4.785-3.291-7.948v-129.045c0.012-3.162,1.229-5.857,3.298-7.952c2.089-2.062,4.784-3.279,7.947-3.29h123.843
		l18.433-30.559l-0.809-0.239c-3.939-1.165-8.099-1.817-12.42-1.817H565.503c-12.081,0-23.134,4.939-31.013,12.846
		c-7.905,7.879-12.846,18.929-12.846,30.978v0.035l0.003,0.015v129.018l-0.003,0.043c0,12.047,4.938,23.098,12.848,30.979
		c7.88,7.905,18.932,12.844,31.011,12.845H694.55c12.073-0.001,23.125-4.94,31.01-12.846c7.887-7.863,12.818-18.886,12.839-30.906
		l0.005-0.019v-129.132l-0.002-0.054H738.402z"/>
	<polygon style="fill:#503949;" points="833.238,1697.469 974.997,1697.469 974.997,1664.854 828.178,1664.854 795.848,1664.854 
		795.848,1697.469 796.5,1697.469 	"/>
	<polygon style="fill:#503949;" points="795.848,1724.376 795.848,1756.991 796.5,1756.991 842.916,1756.991 1442.589,1756.991 
		1442.589,1724.376 837.82,1724.376 	"/>
	<polygon style="fill:#503949;" points="795.848,1783.897 795.848,1816.512 796.5,1816.512 852.582,1816.512 1442.589,1816.512 
		1442.589,1783.897 847.505,1783.897 	"/>
	<polygon style="fill:#503949;" points="795.848,1843.419 795.848,1876.034 796.5,1876.034 862.117,1876.034 1158.074,1876.034 
		1158.074,1843.419 857.124,1843.419 	"/>
	<polygon style="fill:#95C11F;" points="707.002,782.029 732.22,740.219 742.599,723.011 714.671,706.166 706.227,720.165 
		688.421,749.686 631.605,843.876 592.56,799.384 568.795,820.24 567.103,819.818 636.503,898.905 	"/>
	<polygon style="fill:#95C11F;" points="706.227,1035.763 688.421,1065.284 631.605,1159.475 592.56,1114.982 568.795,1135.838 
		567.102,1135.416 636.503,1214.504 707.002,1097.627 732.22,1055.817 742.599,1038.609 714.67,1021.763 	"/>
	<polygon style="fill:#95C11F;" points="706.227,1351.362 688.421,1380.882 631.605,1475.072 592.56,1430.58 568.795,1451.436 
		567.102,1451.014 636.501,1530.1 707.002,1413.225 732.22,1371.415 742.599,1354.207 714.67,1337.362 	"/>
	<polygon style="fill:#95C11F;" points="714.335,1653.519 706.227,1666.96 688.421,1696.48 631.605,1790.67 592.56,1746.178 
		568.795,1767.034 567.1,1766.612 636.503,1845.7 707.002,1728.824 732.22,1687.014 742.599,1669.805 714.67,1652.96 	"/>
	<polygon style="fill:#FFFFFF;" points="1506.387,396.116 1506.387,2015.663 1507.039,2015.663 1556.219,2015.663 1556.219,424.989 
		1556.219,396.116 	"/>
	<path style="fill:#D6D6D6;" d="M1276.392,320.465c-1.92-29.926-26.731-53.621-57.141-53.622h-39.146
		c-23.333-80.694-97.814-139.889-185.921-139.892c-3.243,0-6.429,0.173-9.607,0.329l-0.027,1.301
		c92.526,8.431,162.764,67.276,167.135,154.55l0.027,0.564l0.565,0.054c21.164,1.966,40.101,0.823,56.101,2.685
		c16.013,1.873,29,6.666,38.648,20.496c3.031,4.322,5.563,13.589,7.529,25.953c5.936,37.129,7.198,102.366,7.197,150.863
		c-0.002,35.364-0.67,61.828-0.674,62.13v1.843l1.283-1.588c8.157-9.299,13.172-21.316,14.066-33.653
		c0.098-1.347,0.15-2.698,0.15-4.049V396.769V324.17C1276.578,322.896,1276.47,321.671,1276.392,320.465z"/>
	<path style="fill:#C6C6C6;" d="M1260.36,377.638c-1.067-16.988-2.53-32.522-4.518-44.962c-1.999-12.448-4.472-21.768-7.745-26.493
		c-9.888-14.209-23.407-19.181-39.569-21.046c-16.031-1.859-34.76-0.765-55.582-2.654c-4.68-87.692-75.496-146.793-168.277-155.201
		l-0.034-0.003l-2.232,0.028l-0.031,0.001c-31.614,1.915-61.194,11.462-86.934,26.807l-0.088,0.052l-0.07,0.081
		c-46.837,53.992-71.02,123.507-71.02,193.739c-0.001,7.581,0.279,15.171,0.85,22.752l0.042,0.569l0.571,0.033
		c27.48,1.598,49.29,24.324,49.29,52.204c0,18.996-10.149,35.575-25.291,44.756l-0.49,0.297l0.23,0.522
		c8.265,18.901,18.565,37.16,30.986,54.409l0.013,0.017c12.898,16.768,27.72,30.651,43.883,42.089l0.168,0.12h294.739
		c17.131,0,32.467-7.556,42.969-19.467l0.154-0.176l0.008-0.24c0.006-0.264,0.674-26.752,0.673-62.127
		C1263.055,451.395,1262.497,411.612,1260.36,377.638z"/>
	<path style="fill:#ACACAC;" d="M881.501,522.76c-12.255-17.023-22.425-35.037-30.618-53.681
		c15.234-9.464,25.433-26.277,25.433-45.534c0-28.377-22.049-51.518-49.936-53.444c-0.536-7.368-0.816-14.746-0.816-22.115
		c0-69.934,24.079-139.145,70.682-192.871l2.667-3.074l-3.494,2.086c-26.437,15.761-48.906,37.972-65.259,64.019
		c-9.489,15.116-16.921,31.545-21.884,48.697H769.12c-30.411,0.001-55.222,23.696-57.142,53.621
		c-0.078,1.207-0.186,2.431-0.186,3.706v72.598v111.659c0,31.661,25.667,57.327,57.328,57.328h32.012h125.642l-1.677-1.185
		C909.037,553.205,894.317,539.416,881.501,522.76z"/>
	<path style="fill:#ACACAC;" d="M1167.802,369.881c-29.638,0-53.665,24.026-53.665,53.664s24.027,53.664,53.665,53.664
		c29.637,0,53.663-24.026,53.663-53.664S1197.438,369.881,1167.802,369.881z"/>
	<path style="fill:#8C8C8B;" d="M826.685,378.866c-22.105,0-40.026,17.92-40.026,40.026c0,22.106,17.921,40.026,40.026,40.026
		c22.105,0,40.026-17.92,40.026-40.026C866.71,396.786,848.789,378.867,826.685,378.866z"/>
	<path style="fill:#8C8C8B;" d="M1171.834,378.866c-22.105,0-40.026,17.92-40.026,40.026c0,22.106,17.921,40.026,40.026,40.026
		c22.105,0,40.026-17.92,40.026-40.026C1211.859,396.786,1193.939,378.867,1171.834,378.866z"/>
	<polygon style="fill:#8C8C8B;" points="891.953,345.701 891.953,359.057 1096.42,359.057 1096.42,345.701 1095.769,345.701 	"/>
	<polygon style="fill:#8C8C8B;" points="891.953,389.91 892.605,389.91 1096.42,389.91 1096.42,376.553 891.953,376.553 	"/>
	<polygon style="fill:#8C8C8B;" points="891.953,420.763 1096.42,420.763 1096.42,420.11 1096.42,407.406 891.953,407.406 	"/>
	<polygon style="fill:#8C8C8B;" points="891.953,451.615 892.605,451.615 1096.42,451.615 1096.42,438.258 891.953,438.258 	"/>
	<polygon style="fill:#8C8C8B;" points="891.953,482.467 892.605,482.467 1096.42,482.467 1096.42,469.111 891.953,469.111 	"/>
	<path style="fill:#FFFFFF;" d="M994.184,205.228c-44.337,0.001-82.882,25.174-102.158,61.964l-0.501,0.955h1.079h204.239
		l-0.498-0.955C1077.069,230.402,1038.522,205.229,994.184,205.228z"/>
	<path style="fill:#C6C6C6;" d="M856.627,408.391c0.001-1.221-0.274-2.462-0.851-3.622c-1.429-2.862-4.333-4.522-7.336-4.521
		c-1.222,0-2.463,0.274-3.622,0.854l-43.558,21.714c-2.863,1.427-4.524,4.33-4.523,7.333c-0.002,1.22,0.271,2.461,0.856,3.624
		c1.426,2.86,4.329,4.519,7.332,4.518c1.219,0,2.459-0.276,3.622-0.853l43.562-21.715
		C854.97,414.298,856.629,411.395,856.627,408.391z"/>
	<path style="fill:#C6C6C6;" d="M1201.778,408.391c0.001-1.221-0.274-2.462-0.851-3.622c-1.429-2.862-4.333-4.522-7.336-4.521
		c-1.222,0-2.463,0.274-3.622,0.854l-43.558,21.714c-2.863,1.427-4.524,4.33-4.523,7.333c-0.001,1.22,0.271,2.461,0.856,3.624
		c1.426,2.86,4.329,4.519,7.332,4.518c1.22,0,2.459-0.276,3.622-0.853l43.562-21.715
		C1200.121,414.298,1201.78,411.395,1201.778,408.391z"/>
</g>
</svg>
